<?xml version="1.0" encoding="UTF-8"?>
<svg id="Layer_2" data-name="Layer 2" xmlns="http://www.w3.org/2000/svg" viewBox="0 0 307.6 411.95">
  <defs>
    <style>
      .cls-1 {
        fill: #fff;
      }

      .cls-1, .cls-2, .cls-3, .cls-4, .cls-5, .cls-6 {
        fill-rule: evenodd;
      }

      .cls-7, .cls-8, .cls-9, .cls-10, .cls-11 {
        fill: none;
      }

      .cls-7, .cls-9 {
        stroke: #3a3a3a;
      }

      .cls-2, .cls-12 {
        fill: #515151;
      }

      .cls-3 {
        fill: #353535;
      }

      .cls-8 {
        stroke-width: .5px;
      }

      .cls-8, .cls-4, .cls-10, .cls-11 {
        stroke: #000;
      }

      .cls-9 {
        stroke-miterlimit: 10;
      }

      .cls-4 {
        fill: #000001;
      }

      .cls-13 {
        fill: #c9c9c9;
      }

      .cls-14 {
        fill: #a3a3a3;
      }

      .cls-6 {
        fill: #ddd;
      }

      .cls-10 {
        stroke-miterlimit: 5.32;
        stroke-width: 1.33px;
      }
    </style>
  </defs>
  <g id="Layer_2-2" data-name="Layer 2">
    <g>
      <g id="layer1">
        <g id="g2888">
          <path id="path2866" class="cls-14" d="M197.25,343.75c32.78,1.79,65.02,1.88,98.41,2.44.61-.01.61,1.09.08,1.08-37.38.59-66.5,1.4-98.49-2.04-1.11-.72-.86-1.16,0-1.48Z"/>
          <path id="path2870" class="cls-13" d="M291.56,356.77l12.49.32.26,3.29,3.29,35.92c.37,3.38-12.43,3.6-13.17-3.75l-2.87-35.78Z"/>
          <path id="path2872" class="cls-13" d="M196.48,351.07l.16-6.31,99.43,2.51c-13.2-.07-18.18,2.04-17.22,4.4l-82.36-.59Z"/>
          <path id="path2880" class="cls-2" d="M177.78,346.97l4.55.27c10.82-25.2,20.57-42.76,54.22-42.29,23.07.48,44.84,1.14,64.81,1.7-3.23-100.41,17.41-218.66-43.51-302.81l-21.23-1.51c-23.54,50.61-37.48,121.41-46.18,192.08-6.64,53.95-10.21,107.81-12.66,152.56Z"/>
          <path id="path2882" class="cls-5" d="M212.25,309.03l92.17-.53-1.88,5.34-98.31-.02c2.46-1.76,4.54-3.8,8.02-4.79Z"/>
        </g>
        <path id="path3705" class="cls-13" d="M184.26,369.5l4.98,35.6c1.49,9.02,11.26,6.56,15.1,6.5l-2.46-42.33"/>
        <path id="path3709" class="cls-2" d="M173.09,336.01l-2.81,8.6-4.39,3.69c-27.82-.35-55.82.16-83.01-3.32l109-216.52-18.79,207.55Z"/>
        <path id="path3746" class="cls-11" d="M202.45,106.4l-2.2,86.77-7.04,152.98"/>
        <path id="path4400" class="cls-12" d="M191.95,349.35l.48-3.53,1.53.07.15,3.53-2.15-.07Z"/>
        <path id="path3702" class="cls-7" d="M231.09,50.2l4.75-33.87"/>
        <path id="path3704" class="cls-7" d="M259.03,51.98l-17.83-39.22"/>
        <path id="path3706" class="cls-7" d="M265.56,20.49l-16.64-11.29"/>
        <path class="cls-6" d="M304.46,362.03l-20.48-2.59c-.13-.12-.25-.24-.38-.36h8.56s0-1.17,0-1.17l-9.82-.2c-1.33-1.59-2.44-3.41-3.34-5.53l-.38-.98-4.9-.06c-9.82-1.47-61.3-2.27-71.05-.94l-125-1.66-1.39,2.21c5.31,3.04,5.07,7.79,6.74,11.24,1.37,3.15,2.66,4.65,6.46,4.95,51.26,3.68,128.6,4.33,203-2.39-2.15-.83-4.06-1.8-5.74-2.92l17.7,1.62.03-1.21Z"/>
      </g>
      <g id="layer2">
        <path id="path5065" class="cls-3" d="M259.03,6.23c37.42,43.65,48.54,124.96,42.19,300.11l-23.39-.59c2.08-6.77,10.98-2.11,12.39-8.96l.68-5.61c.91-8.63,9.26-2.22,9.75-13.85l.28-23.85c0-4.54-1.5-5.74-6.86-5.68v-3.02c7.01.07,6.6-2.89,6.92-5v-49.92c-.25-5.15.05-7.63-8.37-7.42l-.19-3.13c5.26.2,8.76.04,8.17-5.5-.12-15.09-.41-30.79-2.59-47.47-.82-5.26,1.19-8.38-8.42-8.21l-.28-2.55c10.6-.21,6.07-11.29,5.9-13.01-2.92-14.32-4.01-24.66-9.14-39.8-1.47-3.35-1.76-4.33-10.32-4.4l-.11-3.98c8.82.23,6.54-4.11,3.6-11.4-2.4-5.95-5.15-12.64-7.49-15.43-1.43-1.71-6.44-2.13-8.04-2.23l.04-2.22c4.67.26,3.9-3.18,3.26-4.09-3.21-4.9-4.55-7.66-8.77-12.56l.75-.22Z"/>
        <path id="path5063" class="cls-3" d="M236.91,3.03l21.01,1.73.47,1.14c-7.23,1.33-20.87,2.42-28.21,18.14l35.45-.54.3,1.25c-20.1.31-36.69-3.5-40.94,13.59-4.47,16.01-2.78,15.69,52.34,16.71l-.05,2.42c-12.82-.3-31.45-.09-44.12-.29-18.41-.65-14.01,3.63-18.1,18.98l-4.8,21.31c-1.93,12.53,6.88,18.4,21.39,18.79,17.33.47,51.3-.06,60.34-.18l.09,1.65-67.78,1.3c-23.28-.9-21.25,18.47-24.32,42.86-.24,6.52-2.94,17.12,12.56,17.85l81.53.25.16,1.85-81.34.81c-10.63-.17-16.45,1.54-18.1,17.9l-2.52,23.53c.34,10.64-6.4,21.19,23.83,21.21l79.42.1.27,1.68-90.83.8c-10.01.21-16.88-2.56-16.23,9.77,3.27,10.49,31.31,42.05,39.11,43.41l50.96,1.58-1.68,2.66c-15.97-.27-36.74-2.95-54.89-.14-.11.02-1.98-3.78-4.22-6.01-10.41-10.36-27.84-30.99-28.23-31.11-4.72-1.43-3.84,5.07-4.53,15.55-.73,11.19-1.62,26.74-1.96,39.43-.05,1.72,2.37,4.93,3.9,2.66,5.84-8.6,15.63-16.72,27.64-21.52,1.05-.42,1.08-.41,3.77-1.26,3.26-1.03,3.34,2.18,2.17,2.36-2.68.41-25.75,5.55-36.66,36.59-1.58,4.49-5.5,1.43-5.39.74C188.54,65.91,231.16,16.76,236.91,3.03Z"/>
        <path id="path5075" class="cls-4" d="M236.29,3.11l21.69,1.78v-.88l-21.39-1.79-.3.89Z"/>
        <path id="path2802" class="cls-1" d="M237.39,43.12l.67-2.22h-1.78l2.89-9.86h-2.08l-8.53,9.71-.74,2.37h4.67l-.96,3.34h3.11l.96-3.34h1.78ZM230.57,40.9l3.86-4.45-1.26,4.45h-2.59Z"/>
        <path id="path2804" class="cls-1" d="M241.17,46.38h.3l.44-.07.59-.15.44-.07.37-.15.44-.15.44-.15.37-.15.44-.22.44-.3.44-.3.52-.37.44-.44.52-.52.44-.52.37-.52.37-.52.37-.59.22-.44.3-.59.22-.44.3-.74.22-.74.15-.52.15-.74.07-.74.07-.59v-.44l-.07-.59v-.37l-.07-.22-.15-.37-.07-.3-.07-.3-.15-.3-.22-.3-.15-.22-.22-.22-.3-.3-.3-.15-.22-.15-.37-.15-.37-.07-.44-.15h-.3l-.37-.07h-1.56l-.44.15-.37.07-.44.15-.3.22-.22.15-.37.3-.3.37-.37.44-.22.37-.22.3-.22.44-.15.52-.22.59-.15.44-.07.52-.07.37v1.71l.07.37.07.3.07.3.15.44.3.44.15.22.3.22.3.15.3.07.44.07.37.07h1.48l.37-.07-.22.44-.22.44-.15.3-.22.3-.15.3-.22.37-.3.3-.15.22-.3.3-.37.37-.37.37-.3.15-.3.3-.22.15-.37.22-.22.15-.22.07-.15.07-.15.07-.15.07h-.15l-.07.07-.07.07-.07.07h-.07l-.07.07-.07.07h-.07v.07l-.07.07v.3h.07l.07.07h.07l.07-.07h.82l.07-.07ZM247.1,32.15l.07.07v.07l.07.07v.07l.07.15.07.37.07.44.07.44v.59l-.07.52-.07.44-.15.52-.07.44-.15.52-.22.67-.3.82-.3.67v.07l-.07.22-.07.15-.07.22-.07.15h-.07l-.07-.07h-.37l-.07-.07-.15-.07h-.07l-.15-.07-.07-.07-.07-.07-.07-.15-.07-.07-.07-.15-.07-.22-.07-.3-.07-.3-.07-.37v-1.26l.07-.22v-.22l.07-.15v-.3l.07-.22.07-.3.07-.07.07-.3.07-.22.07-.22.07-.15.07-.22.07-.15.07-.15.07-.15.07-.07v-.15l.07-.15.15-.15v-.07l.15-.15.07-.22.15-.15.07-.07.07-.07.07-.07.07-.07.07-.07.15-.07h.44l.07.07h.07l.07.07Z"/>
        <path id="path2806" class="cls-1" d="M254.59,42.23v-.07l.37-.07.37-.07h.37l.44-.07.37-.07.44-.07.22-.07.3-.15.37-.07.3-.15.3-.15.3-.15.3-.22.22-.15.15-.15.15-.15.22-.15.15-.15.22-.22.07-.15.15-.22.15-.07.07-.22.07-.07.07-.22.07-.15.07-.22.07-.22.07-.22.07-.22v-.67l-.07-.22-.15-.3-.15-.15-.15-.22-.22-.15-.3-.07-.3-.15-.37-.07h-1.56l-.37.07-.52.15-.52.22-.44.22-.37.15-.3.15-.3.15-.3.15-.3.22-.22.22-.44.3-.37.44-.37.37-.3.44-.22.3-.15.22-.22.37-.37.59-.15.44-.15.44-.07.3-.07.3-.07.37-.07.44v1.26l.07.37v.07l.07.07v.15l.07.07v.15h.07v.07l.07.07v.07l.07.07v.07l.07.07.07.07.07.07.07.07.07.07h.07l.07.07.15.07.07.07.15.07.07.07h.15l.07.07h.15l.15.07.22.07.15.07h.15l.22.07h.3l.15.07h1.56l.15-.07h.15l.15-.07.22-.07.15-.07h.22l.15-.07.15-.15.22-.07.07-.07.07-.07h.15l.07-.07.15-.15.07-.07.15-.07.07-.07.15-.07.07-.07.3-.22.15-.15.07-.07.07-.15.15-.07.07-.07.07-.07.07-.07.07-.15h.07l.07-.07.07-.07v-.07l.07-.07v-.07l.07-.07v-.3l-.07-.07-.07-.07h-.07l-.07-.07h-.22l-.15.07-.15.07-.15.07-.15.07-.15.15-.15.15-.07.07h-.15l-.07.07-.15.15-.15.07-.22.07-.15.15-.15.07-.15.07-.22.07-.15.15-.15.07h-.37l-.07.07-.15-.07h-.15l-.15-.07h-.22l-.07-.07-.15-.15-.15-.07-.07-.07-.07-.15-.07-.07-.07-.15-.07-.07-.07-.07-.07-.15-.07-.15v-.15l-.07-.15v-.74l.07-.22v-.15ZM254.74,41.42l.07-.22v-.15l.07-.22.07-.15.15-.15.07-.3.15-.22.07-.15.07-.22.15-.15.07-.22.07-.07.07-.15v-.07l.15-.15.07-.15.15-.22.07-.22.15-.22.15-.22.07-.07.07-.07.07-.15.07-.07.07-.07.15-.15.07-.07h.15l.07-.07h.22l.15.07.07.07v.07l.07.07.07.15v.37l-.07.15v.15l-.07.15-.07.22-.07.07v.22l-.15.15-.07.3-.15.15-.07.15-.15.15-.15.15-.15.22-.3.22-.22.22-.3.22-.15.15-.15.15-.22.07-.15.07-.15.07-.22.07-.15.07h-.07Z"/>
        <path id="path2808" class="cls-1" d="M266.67,37.34l.44-1.63-.37.07-.44.07-.37.07-.3.07-.44.15-.3.07-.3.07-.15.07h-.3l-.3.07-.22.07h-.3l-.15.07h-.52l-.07.07-.07.07-.07.07v.15h-.07v.07h.07v.07l.07.07h.67l.07.07h.07l.07.07.07.07v.15l.07.07v.52l-.07.07v.37l-.07.15v.22l-.07.07v.22l-.07.15-.07.37-.07.22-.07.3-.07.3-1.71,5.86h3.34l.52-1.71.3-.89.15-.44.07-.3.37-.96.22-.59.3-.67.3-.52.22-.59.22-.37.15-.22.22-.15.15-.07.07-.07h.22l.07.07v.07l.07.07v.15l.07.07.07.15.07.15.07.07.15.15h.07l.15.07h.52l.15-.07h.07l.15-.07.07-.07.07-.15.07-.07.07-.15.07-.15.07-.15.07-.15.07-.07v-.15l.07-.15.07-.15v-.22l.07-.07v-1.26l-.07-.07v-.07l-.07-.07v-.15l-.07-.07v-.07l-.07-.07-.07-.07-.07-.07-.15-.07-.07-.07h-.07l-.15-.07h-.82l-.15.07-.15.07h-.15l-.07.07-.15.07-.07.07-.07.07-.15.15-.07.07-.07.07-.15.07-.07.15-.07.07-.07.07-.15.15-.07.07-.07.07-.07.15-.07.22-.07.15-.15.15v.15l-.07.15-.07.07-.07.07-.07.07h-.07v-.15l.15-.52.15-.44Z"/>
      </g>
      <g id="layer3">
        <path id="path3703" class="cls-3" d="M76.29,350.74l1.39-2.21c-25.84-1.28-51.48-3.06-77.32-5.98-.32.39-.4.78-.33,1.16,24.9,2.71,50.26,4.87,76.26,7.03Z"/>
        <path id="path5107" class="cls-11" d="M193.2,345.93l22.69-240.37,10.09-81.52"/>
        <path id="path5109" class="cls-8" d="M193.2,345.93l22.69-240.37,10.09-81.52"/>
        <path id="path5124" class="cls-8" d="M202.45,106.4l-2.2,86.77-7.04,152.98"/>
        <path id="path3699" class="cls-10" d="M203.48,106.42l12.17-1.33-.06.88-12.34,1.75.23-1.29Z"/>
        <path id="path2876" class="cls-10" d="M188.34,193.73l11.45-1.09-.12,1.07-11.91,1.75.29-.1c-.62.08-.37-1.46.29-1.62Z"/>
        <path id="path2878" class="cls-5" d="M173.78,349.11c1.21-75.92,12.48-168.8,28.29-243.33,9.36-44.14,21.06-81.84,33.31-105.77l1.6.67c-33.69,61.52-57.88,251.2-59.46,348.52l-3.74-.08Z"/>
      </g>
      <path id="path3662" class="cls-7" d="M283.39,300.39l-66.56-8.32"/>
      <path id="path3664" class="cls-7" d="M285.77,298.02l-95.08-38.63"/>
      <path id="path3666" class="cls-7" d="M206.73,248.1l82.01,43.98"/>
      <path id="path3668" class="cls-7" d="M196.63,208.28l93.9,79.04"/>
      <path id="path3670" class="cls-7" d="M206.73,185.1l86.17,99.24"/>
      <path id="path3672" class="cls-7" d="M206.14,135.18l89.14,147.38"/>
      <path id="path3693" class="cls-7" d="M214.46,84.67l83.79,198.49"/>
      <path id="path3695" class="cls-7" d="M232.28,59.12l67.75,221.67"/>
      <path id="path3697" class="cls-7" d="M260.81,60.9l39.22,216.32"/>
      <path id="path3708" class="cls-9" d="M154.43,341.99l-60.02-15.45"/>
      <path id="path3710" class="cls-9" d="M158.59,336.64l-54.08-24.96"/>
      <path id="path3712" class="cls-9" d="M162.16,327.73l-47.54-26.74"/>
      <path id="path3714" class="cls-9" d="M165.72,322.98l-46.35-44.57"/>
      <path id="path3716" class="cls-9" d="M169.88,319.41l-37.44-65.97"/>
      <path id="path3718" class="cls-9" d="M170.48,312.87l-19.02-98.65"/>
      <path id="path3720" class="cls-9" d="M171.07,306.93l-3.57-124.2h0"/>
    </g>
  </g>
</svg>