<?xml version="1.0" encoding="UTF-8"?>
<svg id="Layer_2" data-name="Layer 2" xmlns="http://www.w3.org/2000/svg" xmlns:xlink="http://www.w3.org/1999/xlink" viewBox="0 0 299.25 400.76">
  <defs>
    <style>
      .cls-1 {
        fill: url(#linear-gradient-2);
      }

      .cls-1, .cls-2, .cls-3, .cls-4, .cls-5, .cls-6 {
        fill-rule: evenodd;
      }

      .cls-2, .cls-7 {
        fill: #fff;
      }

      .cls-3 {
        fill: url(#linear-gradient);
      }

      .cls-3, .cls-8, .cls-4, .cls-9, .cls-10 {
        stroke: #000;
      }

      .cls-3, .cls-9 {
        stroke-miterlimit: 5.32;
        stroke-width: 1.33px;
      }

      .cls-11, .cls-6 {
        fill: #ccccce;
      }

      .cls-8 {
        stroke-width: .5px;
      }

      .cls-8, .cls-12, .cls-13, .cls-9, .cls-10, .cls-14 {
        fill: none;
      }

      .cls-4 {
        fill: #000001;
      }

      .cls-12, .cls-13 {
        stroke: #e0e0e0;
      }

      .cls-15 {
        opacity: .65;
      }

      .cls-13 {
        stroke-miterlimit: 10;
      }

      .cls-14 {
        stroke: #fff;
      }
    </style>
    <linearGradient id="linear-gradient" x1="287.11" y1="1358.09" x2="286.68" y2="1379.82" gradientTransform="translate(-134.2 2121.34) scale(1.33 -1.33)" gradientUnits="userSpaceOnUse">
      <stop offset="0" stop-color="#262527"/>
      <stop offset="1" stop-color="#262527" stop-opacity="0"/>
    </linearGradient>
    <linearGradient id="linear-gradient-2" x1="227.71" y1="1467.29" x2="274.54" y2="1467.29" gradientTransform="translate(-134.2 2121.34) scale(1.33 -1.33)" gradientUnits="userSpaceOnUse">
      <stop offset="0" stop-color="#424242"/>
      <stop offset="1" stop-color="#424242" stop-opacity="0"/>
    </linearGradient>
  </defs>
  <g id="Layer_2-2" data-name="Layer 2">
    <g class="cls-15">
      <g id="layer1">
        <g id="g2888">
          <path id="path2866" class="cls-7" d="M191.89,334.42c31.89,1.74,63.26,1.83,95.73,2.38.59-.01.59,1.06.08,1.05-36.36.57-64.69,1.36-95.82-1.99-1.08-.7-.84-1.13,0-1.44Z"/>
          <path id="path2870" class="cls-11" d="M283.64,347.08l12.15.31.25,3.2,3.2,34.94c.36,3.29-12.1,3.51-12.81-3.65l-2.79-34.81Z"/>
          <path id="path2872" class="cls-11" d="M191.14,341.53l.15-6.14,96.73,2.44c-12.84-.07-17.69,1.98-16.75,4.28l-80.13-.58Z"/>
          <path id="path2880" class="cls-2" d="M172.96,337.54l4.42.26c10.53-24.52,20.01-41.59,52.75-41.14,22.44.47,43.62,1.11,63.05,1.65-3.14-97.68,16.93-212.73-42.33-294.59l-20.65-1.47c-22.9,49.24-36.47,118.12-44.92,186.86-6.46,52.48-9.94,104.89-12.31,148.42Z"/>
          <path id="path2882" class="cls-3" d="M206.48,300.64l89.66-.52-1.83,5.2-95.64-.02c2.39-1.71,4.42-3.69,7.81-4.66Z"/>
        </g>
        <path id="path3705" class="cls-11" d="M179.26,359.46l4.85,34.64c1.45,8.78,10.95,6.38,14.69,6.32l-2.39-41.18"/>
        <path id="path3709" class="cls-2" d="M168.39,326.88l-2.73,8.37-4.27,3.59c-27.07-.34-54.3.16-80.76-3.23l106.04-210.64-18.28,201.91Z"/>
        <path id="path3746" class="cls-10" d="M196.95,103.51l-2.14,84.41-6.85,148.83"/>
        <path id="path4400" class="cls-7" d="M186.73,339.86l.46-3.43,1.49.07.14,3.43-2.1-.07Z"/>
        <path id="path3702" class="cls-14" d="M224.82,48.84l4.63-32.95"/>
        <path id="path3704" class="cls-14" d="M251.99,50.57l-17.34-38.16"/>
        <path id="path3706" class="cls-14" d="M258.35,19.93l-16.19-10.98"/>
        <path class="cls-2" d="M296.2,352.2l-19.93-2.52c-.12-.12-.25-.23-.37-.35h8.33s0-1.14,0-1.14l-9.55-.2c-1.29-1.55-2.37-3.32-3.25-5.38l-.37-.95-4.76-.06c-9.56-1.43-59.64-2.21-69.13-.92l-121.61-1.61-1.35,2.15c5.16,2.96,4.94,7.58,6.56,10.94,1.33,3.06,2.59,4.53,6.28,4.82,49.87,3.58,125.11,4.21,197.49-2.33-2.09-.81-3.95-1.75-5.59-2.84l17.22,1.57.02-1.18Z"/>
      </g>
      <g id="layer2">
        <path id="path5065" class="cls-6" d="M251.99,6.06c36.41,42.46,47.22,121.57,41.05,291.96l-22.75-.58c2.02-6.59,10.68-2.06,12.06-8.72l.66-5.46c.89-8.4,9.01-2.16,9.49-13.47l.28-23.2c0-4.42-1.46-5.59-6.67-5.52v-2.94c6.82.07,6.42-2.81,6.74-4.86v-48.56c-.24-5.01.05-7.42-8.14-7.22l-.19-3.04c5.12.19,8.53.04,7.95-5.35-.12-14.69-.4-29.95-2.52-46.18-.8-5.11,1.16-8.15-8.19-7.99l-.28-2.48c10.31-.2,5.9-10.99,5.74-12.66-2.84-13.93-3.9-24-8.89-38.72-1.43-3.25-1.71-4.21-10.04-4.28l-.1-3.87c8.58.22,6.37-3.99,3.51-11.09-2.33-5.79-5.01-12.3-7.29-15.01-1.4-1.66-6.27-2.07-7.82-2.17l.04-2.16c4.55.25,3.79-3.09,3.17-3.98-3.12-4.77-4.43-7.45-8.53-12.22l.73-.21Z"/>
        <path id="path5063" class="cls-6" d="M230.47,2.95l20.44,1.68.46,1.11c-7.03,1.3-20.3,2.36-27.44,17.65l34.49-.53.29,1.21c-19.55.3-35.69-3.4-39.83,13.22-4.34,15.58-2.71,15.27,50.92,16.26l-.05,2.35c-12.47-.29-30.59-.09-42.92-.28-17.91-.63-13.63,3.53-17.61,18.46l-4.67,20.73c-1.88,12.19,6.69,17.9,20.81,18.28,16.86.45,49.9-.05,58.7-.18l.08,1.61-65.94,1.26c-22.65-.88-20.67,17.97-23.66,41.7-.23,6.34-2.86,16.66,12.21,17.37l79.31.24.15,1.8-79.13.79c-10.35-.17-16.01,1.5-17.61,17.41l-2.45,22.89c.33,10.35-6.23,20.61,23.19,20.63l77.26.1.26,1.63-88.37.78c-9.73.21-16.42-2.49-15.79,9.51,3.18,10.2,30.46,40.91,38.04,42.24l49.58,1.53-1.64,2.59c-15.53-.26-35.75-2.87-53.4-.13-.11.02-1.92-3.67-4.11-5.85-10.13-10.08-27.08-30.15-27.46-30.26-4.59-1.39-3.74,4.94-4.4,15.13-.71,10.89-1.57,26.01-1.9,38.35-.04,1.67,2.3,4.8,3.8,2.59,5.68-8.37,15.21-16.27,26.89-20.93,1.02-.41,1.05-.4,3.66-1.23,3.17-1,3.25,2.12,2.11,2.29-2.61.4-25.05,5.39-35.67,35.59-1.53,4.37-5.35,1.39-5.25.72C183.42,64.12,224.88,16.31,230.47,2.95Z"/>
        <path id="path5075" class="cls-4" d="M229.88,3.02l21.1,1.73v-.86l-20.81-1.75-.29.87Z"/>
        <path id="path2802" class="cls-5" d="M230.94,41.95l.65-2.16h-1.73l2.81-9.59h-2.02l-8.29,9.45-.72,2.31h4.54l-.94,3.25h3.03l.94-3.25h1.73ZM224.31,39.79l3.75-4.33-1.23,4.33h-2.52Z"/>
        <path id="path2804" class="cls-5" d="M234.62,45.12h.29l.43-.07.58-.14.43-.07.36-.14.43-.14.43-.14.36-.14.43-.22.43-.29.43-.29.5-.36.43-.43.5-.5.43-.5.36-.5.36-.5.36-.58.22-.43.29-.58.22-.43.29-.72.22-.72.14-.5.14-.72.07-.72.07-.58v-.43l-.07-.58v-.36l-.07-.22-.14-.36-.07-.29-.07-.29-.14-.29-.22-.29-.14-.22-.22-.22-.29-.29-.29-.14-.22-.14-.36-.14-.36-.07-.43-.14h-.29l-.36-.07h-1.51l-.43.14-.36.07-.43.14-.29.22-.22.14-.36.29-.29.36-.36.43-.22.36-.22.29-.22.43-.14.5-.22.58-.14.43-.07.5-.07.36v1.66l.07.36.07.29.07.29.14.43.29.43.14.22.29.22.29.14.29.07.43.07.36.07h1.44l.36-.07-.22.43-.22.43-.14.29-.22.29-.14.29-.22.36-.29.29-.14.22-.29.29-.36.36-.36.36-.29.14-.29.29-.22.14-.36.22-.22.14-.22.07-.14.07-.14.07-.14.07h-.14l-.07.07-.07.07-.07.07h-.07l-.07.07-.07.07h-.07v.07l-.07.07v.29h.07l.07.07h.07l.07-.07h.79l.07-.07ZM240.39,31.28l.07.07v.07l.07.07v.07l.07.14.07.36.07.43.07.43v.58l-.07.5-.07.43-.14.5-.07.43-.14.5-.22.65-.29.79-.29.65v.07l-.07.22-.07.14-.07.22-.07.14h-.07l-.07-.07h-.36l-.07-.07-.14-.07h-.07l-.14-.07-.07-.07-.07-.07-.07-.14-.07-.07-.07-.14-.07-.22-.07-.29-.07-.29-.07-.36v-1.23l.07-.22v-.22l.07-.14v-.29l.07-.22.07-.29.07-.07.07-.29.07-.22.07-.22.07-.14.07-.22.07-.14.07-.14.07-.14.07-.07v-.14l.07-.14.14-.14v-.07l.14-.14.07-.22.14-.14.07-.07.07-.07.07-.07.07-.07.07-.07.14-.07h.43l.07.07h.07l.07.07Z"/>
        <path id="path2806" class="cls-5" d="M247.67,41.09v-.07l.36-.07.36-.07h.36l.43-.07.36-.07.43-.07.22-.07.29-.14.36-.07.29-.14.29-.14.29-.14.29-.22.22-.14.14-.14.14-.14.22-.14.14-.14.22-.22.07-.14.14-.22.14-.07.07-.22.07-.07.07-.22.07-.14.07-.22.07-.22.07-.22.07-.22v-.65l-.07-.22-.14-.29-.14-.14-.14-.22-.22-.14-.29-.07-.29-.14-.36-.07h-1.51l-.36.07-.5.14-.5.22-.43.22-.36.14-.29.14-.29.14-.29.14-.29.22-.22.22-.43.29-.36.43-.36.36-.29.43-.22.29-.14.22-.22.36-.36.58-.14.43-.14.43-.07.29-.07.29-.07.36-.07.43v1.23l.07.36v.07l.07.07v.14l.07.07v.14h.07v.07l.07.07v.07l.07.07v.07l.07.07.07.07.07.07.07.07.07.07h.07l.07.07.14.07.07.07.14.07.07.07h.14l.07.07h.14l.14.07.22.07.14.07h.14l.22.07h.29l.14.07h1.51l.14-.07h.14l.14-.07.22-.07.14-.07h.22l.14-.07.14-.14.22-.07.07-.07.07-.07h.14l.07-.07.14-.14.07-.07.14-.07.07-.07.14-.07.07-.07.29-.22.14-.14.07-.07.07-.14.14-.07.07-.07.07-.07.07-.07.07-.14h.07l.07-.07.07-.07v-.07l.07-.07v-.07l.07-.07v-.29l-.07-.07-.07-.07h-.07l-.07-.07h-.22l-.14.07-.14.07-.14.07-.14.07-.14.14-.14.14-.07.07h-.14l-.07.07-.14.14-.14.07-.22.07-.14.14-.14.07-.14.07-.22.07-.14.14-.14.07h-.36l-.07.07-.14-.07h-.14l-.14-.07h-.22l-.07-.07-.14-.14-.14-.07-.07-.07-.07-.14-.07-.07-.07-.14-.07-.07-.07-.07-.07-.14-.07-.14v-.14l-.07-.14v-.72l.07-.22v-.14ZM247.82,40.29l.07-.22v-.14l.07-.22.07-.14.14-.14.07-.29.14-.22.07-.14.07-.22.14-.14.07-.22.07-.07.07-.14v-.07l.14-.14.07-.14.14-.22.07-.22.14-.22.14-.22.07-.07.07-.07.07-.14.07-.07.07-.07.14-.14.07-.07h.14l.07-.07h.22l.14.07.07.07v.07l.07.07.07.14v.36l-.07.14v.14l-.07.14-.07.22-.07.07v.22l-.14.14-.07.29-.14.14-.07.14-.14.14-.14.14-.14.22-.29.22-.22.22-.29.22-.14.14-.14.14-.22.07-.14.07-.14.07-.22.07-.14.07h-.07Z"/>
        <path id="path2808" class="cls-5" d="M259.43,36.33l.43-1.59-.36.07-.43.07-.36.07-.29.07-.43.14-.29.07-.29.07-.14.07h-.29l-.29.07-.22.07h-.29l-.14.07h-.5l-.07.07-.07.07-.07.07v.14h-.07v.07h.07v.07l.07.07h.65l.07.07h.07l.07.07.07.07v.14l.07.07v.5l-.07.07v.36l-.07.14v.22l-.07.07v.22l-.07.14-.07.36-.07.22-.07.29-.07.29-1.66,5.7h3.25l.5-1.66.29-.87.14-.43.07-.29.36-.94.22-.58.29-.65.29-.5.22-.58.22-.36.14-.22.22-.14.14-.07.07-.07h.22l.07.07v.07l.07.07v.14l.07.07.07.14.07.14.07.07.14.14h.07l.14.07h.5l.14-.07h.07l.14-.07.07-.07.07-.14.07-.07.07-.14.07-.14.07-.14.07-.14.07-.07v-.14l.07-.14.07-.14v-.22l.07-.07v-1.23l-.07-.07v-.07l-.07-.07v-.14l-.07-.07v-.07l-.07-.07-.07-.07-.07-.07-.14-.07-.07-.07h-.07l-.14-.07h-.79l-.14.07-.14.07h-.14l-.07.07-.14.07-.07.07-.07.07-.14.14-.07.07-.07.07-.14.07-.07.14-.07.07-.07.07-.14.14-.07.07-.07.07-.07.14-.07.22-.07.14-.14.14v.14l-.07.14-.07.07-.07.07-.07.07h-.07v-.14l.14-.5.14-.43Z"/>
      </g>
      <g id="layer3">
        <path id="path3703" class="cls-6" d="M74.21,341.22l1.35-2.15c-25.14-1.25-50.08-2.97-75.22-5.82-.31.38-.39.76-.32,1.13,24.23,2.63,48.9,4.74,74.19,6.84Z"/>
        <path id="path5107" class="cls-10" d="M187.96,336.53l22.08-233.84,9.81-79.31"/>
        <path id="path5109" class="cls-8" d="M187.96,336.53l22.08-233.84,9.81-79.31"/>
        <path id="path5124" class="cls-8" d="M196.95,103.51l-2.14,84.41-6.85,148.83"/>
        <path id="path3699" class="cls-9" d="M197.96,103.53l11.84-1.3-.05.86-12,1.7.22-1.26Z"/>
        <path id="path2876" class="cls-9" d="M183.22,188.47l11.14-1.06-.12,1.04-11.58,1.7.28-.1c-.6.08-.36-1.42.28-1.58Z"/>
        <path id="path2878" class="cls-1" d="M169.06,339.63c1.18-73.86,12.14-164.22,27.52-236.73,9.11-42.94,20.49-79.62,32.4-102.9l1.56.65c-32.77,59.85-56.31,244.38-57.85,339.06l-3.63-.08Z"/>
      </g>
      <g id="layer5">
        <path id="path2865" class="cls-6" d="M97.97,337.3l-18.26-2.28,106.21-209.7,1.26.04-21.56,42.58c-2.98,5.13,2.15,4.78,5.44,5.2l-.17,1.93c-4.49-.01-8.1-.31-9.86,2.83l-26.97,53.63c-2.61,4.1-3.09,6.77,6.36,6.6l-.2,2.62c-6.05-.75-10.73.18-12.86,4.26l-19.55,39.14c-3.13,5.48,4.27,4.86,7.96,4.96l-.13,2.04c-5.92-.34-11.05-.39-13.85,4.29l-13.36,26.11c-3.33,7.18,3.23,15.16,9.55,15.75Z"/>
        <path id="path3637" class="cls-6" d="M183.87,150.12l1.64-20.44-9.41,19.86,6.79.48-2.08,20.12c-1.09,3.23-5.47,3-9.2,3.07l-.41,1.84c4.46-.8,9.89-.63,8.99,4.5l-5.31,54.58c-.43,2.21-.91,4.34-3.47,3.88l-30.66.2v2.04h29.84c2.13.03,3.64.81,3.07,4.09l-3.88,40.27c.23,2.62-1.35,3.42-3.27,3.88l-49.87.61-.2,2.25,49.26-.61c4.52-.08,3.16,2.05,3.68,3.47l-1.64,20.64c-6.86,2.58-9.48,6.21-9.81,10.42l-1.23,5.72c-.41,2.82-.73,5.27-6.54,5.93l-54.37-.82,3.27,1.23,62.34,1.43,3.68-3.88,2.45-8.18,16.35-176.61Z"/>
      </g>
      <path id="path3662" class="cls-12" d="M275.7,292.24l-64.75-8.09"/>
      <path id="path3664" class="cls-12" d="M278.01,289.92l-92.5-37.58"/>
      <path id="path3666" class="cls-12" d="M201.12,241.36l79.78,42.78"/>
      <path id="path3668" class="cls-12" d="M191.29,202.62l91.35,76.89"/>
      <path id="path3670" class="cls-12" d="M201.12,180.08l83.83,96.55"/>
      <path id="path3672" class="cls-12" d="M200.54,131.51l86.72,143.38"/>
      <path id="path3693" class="cls-12" d="M208.63,82.37l81.52,193.1"/>
      <path id="path3695" class="cls-12" d="M225.98,57.51l65.91,215.65"/>
      <path id="path3697" class="cls-12" d="M253.73,59.25l38.16,210.44"/>
      <path id="path3708" class="cls-13" d="M150.24,332.71l-58.39-15.03"/>
      <path id="path3710" class="cls-13" d="M154.29,327.5l-52.61-24.28"/>
      <path id="path3712" class="cls-13" d="M157.76,318.83l-46.25-26.02"/>
      <path id="path3714" class="cls-13" d="M161.22,314.21l-45.1-43.36"/>
      <path id="path3716" class="cls-13" d="M165.27,310.74l-36.42-64.17"/>
      <path id="path3718" class="cls-13" d="M165.85,304.38l-18.5-95.97"/>
      <path id="path3720" class="cls-13" d="M166.43,298.6l-3.47-120.83h0"/>
    </g>
  </g>
</svg>