<?xml version="1.0" encoding="UTF-8"?>
<svg id="Layer_2" data-name="Layer 2" xmlns="http://www.w3.org/2000/svg" xmlns:xlink="http://www.w3.org/1999/xlink" viewBox="0 0 244.26 411.95">
  <defs>
    <style>
      .cls-1 {
        stroke: #1e1e1e;
      }

      .cls-1, .cls-2, .cls-3, .cls-4, .cls-5, .cls-6 {
        fill: none;
      }

      .cls-7 {
        fill: url(#linear-gradient-5);
      }

      .cls-8 {
        fill: url(#linear-gradient-6);
      }

      .cls-9 {
        fill: url(#linear-gradient-4);
      }

      .cls-10 {
        fill: url(#linear-gradient-3);
      }

      .cls-11 {
        fill: url(#linear-gradient-2);
      }

      .cls-2 {
        stroke: #353535;
      }

      .cls-2, .cls-5 {
        stroke-miterlimit: 10;
      }

      .cls-12 {
        fill: url(#linear-gradient);
      }

      .cls-3 {
        stroke-width: .5px;
      }

      .cls-3, .cls-4, .cls-13, .cls-5, .cls-14, .cls-6 {
        stroke: #000;
      }

      .cls-4 {
        stroke-width: .8px;
      }

      .cls-15 {
        isolation: isolate;
      }

      .cls-13, .cls-16 {
        fill: #fff;
      }

      .cls-17 {
        fill: #ddd;
      }

      .cls-18 {
        fill: #515151;
      }

      .cls-19 {
        fill: #7e8280;
      }

      .cls-20 {
        mix-blend-mode: screen;
        opacity: .5;
      }
    </style>
    <linearGradient id="linear-gradient" x1="146.17" y1="33.1" x2="158.13" y2="33.1" gradientTransform="translate(0 412.65) scale(1 -1)" gradientUnits="userSpaceOnUse">
      <stop offset="0" stop-color="#231f20"/>
      <stop offset="1" stop-color="#464547"/>
    </linearGradient>
    <linearGradient id="linear-gradient-2" x1="108.84" y1="38.24" x2="120.8" y2="38.24" xlink:href="#linear-gradient"/>
    <linearGradient id="linear-gradient-3" x1="233.2" y1="205.6" x2="242.02" y2="205.6" gradientTransform="translate(0 582.65) scale(1 -1)" xlink:href="#linear-gradient"/>
    <linearGradient id="linear-gradient-4" x1="203.32" y1="216.39" x2="212.14" y2="216.39" gradientTransform="translate(0 582.65) scale(1 -1)" xlink:href="#linear-gradient"/>
    <linearGradient id="linear-gradient-5" x1="103.27" y1="241.86" x2="103.27" y2="220.07" gradientTransform="translate(0 582.65) scale(1 -1)" gradientUnits="userSpaceOnUse">
      <stop offset="0" stop-color="#c6c6c6"/>
      <stop offset=".8" stop-color="#fff"/>
      <stop offset="1" stop-color="#c6c6c6"/>
    </linearGradient>
    <linearGradient id="linear-gradient-6" x1="133.11" y1="234.29" x2="133.11" y2="212.5" xlink:href="#linear-gradient-5"/>
  </defs>
  <g id="Layer_1-2" data-name="Layer 1-2">
    <g class="cls-15">
      <g id="Layer_11" data-name="Layer 11">
        <path class="cls-12" d="M155.48,347.58h-6.59l1.45,16.65c.57,12.4.78,21.01,0,27.65-1.71,14.99-6.33,18.31-3.01,19.3,3.32.99,3.99-.1,5.34-1.61,5.71-6.28,5.45-21.38,5.45-21.38v-38.18l-2.59-2.49h-.05v.05h0Z"/>
        <path class="cls-11" d="M111.49,342.44h6.59l-1.45,16.65c-.57,12.4-.78,21.01,0,27.65,1.71,14.99,6.33,18.31,3.01,19.3s-3.99-.1-5.34-1.61c-5.71-6.28-5.45-21.38-5.45-21.38v-38.18l2.59-2.49h.05v.05Z"/>
        <g>
          <path id="path3002" class="cls-10" d="M241.71,359.3l.36,12.3c-.62,9.39-.88,18.83-3.37,26.3l-2.7-.1c-1.35-3.68-2.49-8.72-2.75-14.22v-16.81l1.71-1.56-.16-9.03,6.95,3.11h-.05Z"/>
          <path id="path30021" class="cls-9" d="M211.77,348.51l.36,12.3c-.62,9.39-.88,18.83-3.37,26.3l-2.7-.1c-1.35-3.68-2.49-8.72-2.75-14.22v-16.81l1.71-1.56-.16-9.03,6.95,3.11h-.05Z"/>
        </g>
        <polyline class="cls-5" points="213.49 343.27 234.81 350.02 234.81 356.6 238.23 359.72 238.03 364.02 235.17 364.91 234.81 356.6"/>
        <polyline class="cls-5" points="215.66 343.74 183.34 339.22 183.34 342.44"/>
        <path id="path3120" class="cls-7" d="M204.3,346.12l-.1,11.05c-62.52,5.91-127.73,8.25-200.68.47-1.14,0-1.19-.83-1.25-1.4-.26-7.06.99-13.02,4.67-13.07,62.52.42,70.3-2.44,92.24-1.66,0,.62,0,1.71.31,2.28h4.25c.1-.73.21-1.3.16-1.97,22.31.88,43.79,2.18,74.6-1.04,0,.67-.16,1.35.36,1.97h3.42c.21-.42.31-.93.16-1.66l21.79,5.08h0l.05-.05h0Z"/>
        <g>
          <path id="path3803" class="cls-18" d="M78.91,330.66l48.82-.67c1.56,0,2.91-1.25,3.06-2.8l21.32-202.54c.16-1.61-2.13-2.13-2.7-.62l-72.43,203.94c-.47,1.3.52,2.7,1.92,2.65h0v.05h0Z"/>
          <path id="path4105" class="cls-2" d="M130.53,321.12l-15.3-45.66-34.71,47.89"/>
          <path id="path4107" class="cls-2" d="M131.88,308.77l-8.3-73.57-37.46,76.99"/>
          <path id="path4111" class="cls-2" d="M112.42,232.45l26.36,2.08"/>
          <path id="path4113" class="cls-2" d="M95.77,282.41l38.18,2.08"/>
          <path id="path4115" class="cls-2" d="M105.47,325.42c12.5-65.47,26.82-130.9,43.01-196.37"/>
          <g id="path3805">
            <polygon class="cls-2" points="87.83 318.94 109.88 297.1 118.96 312.04 118.49 328.49 104.02 325.32 87.57 329 87.83 318.94"/>
            <polygon class="cls-2" points="87.83 318.94 109.88 297.1 118.96 312.04 118.49 328.49 104.02 325.32 87.57 329 87.83 318.94"/>
          </g>
        </g>
        <g>
          <path id="path3807" class="cls-18" d="M143.39,331.23c21.01-1.3,44.88-4.2,69.78-7.73,1.92-.26,3.32-1.92,3.32-3.84-.21-105.21,3.42-209.13-1.71-316.01l-32.89-.26c-17.33,109.94-28.28,217.43-40.67,325.55-.16,1.25.88,2.33,2.13,2.28h.05,0Z"/>
          <path id="path3996" class="cls-6" d="M148.32,267.84l68.02-.31.1,2.23-68.12.52v-2.44h0Z"/>
          <path id="path3998" class="cls-6" d="M216.75,215.12l-62.52.21-.47,2.44,63.04-.26v-2.39h-.05Z"/>
          <path id="path4000" class="cls-6" d="M160.62,162.88l56.6-.16v1.97l-56.86.26.26-2.08Z"/>
          <path id="path4002" class="cls-6" d="M167,111.52l50.07-.78v2.08l-50.22.67.16-1.97Z"/>
          <path id="path4004" class="cls-6" d="M171.93,74.16l44.93-2.23.1,2.08-45.34,2.08.36-1.92h-.05Z"/>
          <path id="path4006" class="cls-6" d="M176.81,39.3l38.96-3.06.1,1.97-39.38,3.22.36-2.18h0l-.05.05h0Z"/>
          <path id="path4008" class="cls-6" d="M178.73,24.93L211.15,3.87l3.48.1-.16,1.04-36.01,23.5.26-3.58h0Z"/>
          <path id="path4010" class="cls-6" d="M142.56,320.03l71.8.16-.67,1.92-71.28-.31.16-1.71h0v-.05h0Z"/>
          <path id="path4014" class="cls-3" d="M147.08,330.77c8.04-12.71,8.09-27.45,9.03-41.97l43.01,22.57.67,8.3"/>
          <path id="path4016" class="cls-3" d="M156.42,245.42l41.3,52.4"/>
          <path id="path4018" class="cls-3" d="M162.69,196.55l38.5,88.09"/>
          <path id="path4020" class="cls-3" d="M169.96,135.49l31.54,126.64"/>
          <path id="path4024" class="cls-3" d="M181.06,41.48l3.48,31.54"/>
          <path id="path4026" class="cls-3" d="M185.21,76.5l3.11,34.35"/>
          <path id="path4028" class="cls-3" d="M188.69,114.32l6.59,47.89"/>
          <path id="path4030" class="cls-3" d="M196,165.68l6.59,49.24"/>
          <path id="path4032" class="cls-3" d="M202.9,218.76l6.59,47.16"/>
          <path id="path4034" class="cls-3" d="M185.94,30.01l1.71,8.3"/>
          <path id="path4036" class="cls-3" d="M187.65,41.79l7.26,30.87"/>
          <path id="path4038" class="cls-3" d="M195.64,76.14l7.99,34.71"/>
          <path id="path4040" class="cls-3" d="M203.94,114.68l3.11,47.52"/>
          <path id="path4042" class="cls-3" d="M207.1,166.72l3.48,47.89"/>
          <path id="path4044" class="cls-3" d="M210.89,218.76l3.11,47.89"/>
          <path id="path4046" class="cls-3" d="M193.56,23.42l4.51,13.54"/>
          <path id="path4048" class="cls-3" d="M198.75,41.12l8.66,30.87"/>
          <path id="path4050" class="cls-3" d="M208.14,76.14l8.66,30.19"/>
          <path id="path4052" class="cls-3" d="M202.23,18.24l5.55,18.05"/>
          <path id="path4054" class="cls-3" d="M208.14,40.44l8.3,28.12"/>
          <path id="path4056" class="cls-6" d="M203.63,270.79l2.75,7.99"/>
          <path id="path4058" class="cls-6" d="M210.53,270.43l1.04,5.55"/>
          <path id="path4060" class="cls-6" d="M213.69,270.79l.67,4.88"/>
          <path id="path4062" class="cls-6" d="M153.3,276.66l.36-4.88"/>
          <path id="path4064" class="cls-3" d="M153.98,266.95l5.91-48.2"/>
          <path id="path4066" class="cls-3" d="M160.62,214.24l5.91-48.92"/>
          <path id="path4068" class="cls-3" d="M172.4,114.32l-4.88,40.93"/>
          <path id="path4070" class="cls-3" d="M173.43,76.5l-1.04,33.67"/>
          <path id="path4072" class="cls-6" d="M173.8,74.06l-.36-5.19"/>
          <path id="path4095" class="cls-4" d="M146.35,286.41h70.92"/>
        </g>
        <path id="path31201" class="cls-8" d="M234.13,353.7l-.1,11.05c-62.52,5.91-127.73,8.25-200.68.47-1.14,0-1.19-.83-1.25-1.4-.26-7.06.99-13.02,4.67-13.07,62.52.42,70.3-2.44,92.24-1.66,0,.62.21,1.45.57,2.02l3.99.21c.1-.67.21-1.3.16-1.97,22.31.88,43.79,2.18,74.6-1.04,0,.67-.16,1.35.36,1.97h3.42c.21-.42.31-.93.16-1.66l21.79,5.08h.05,0Z"/>
        <g>
          <g>
            <path class="cls-16" d="M194.24,53.72c0-1.25,1.25-1.14,1.25-1.14,0,0,1.25-.05,1.25,1.14v5.5h3.01v-5.66s-.1-3.79-4.31-3.79-4.31,3.79-4.31,3.79v5.66h3.01v-5.5h.1Z"/>
            <rect class="cls-16" x="191.18" y="61.92" width="8.56" height="1.3"/>
            <rect class="cls-16" x="191.18" y="60" width="8.56" height=".93"/>
          </g>
          <g>
            <path id="path4091" class="cls-16" d="M202.9,60.1c.52-.52,1.04-.73,2.02-.78h1.92c0,.05-3.68,3.89-3.68,3.89h-1.97l3.11-3.01h-1.4v-.1Z"/>
            <path id="path4093" class="cls-16" d="M207.52,60.05c.42-.26.57-.62,1.66-.78h4.98c.88.1,1.09.42.73.99l-3.89,2.85h-2.23c0,.05,3.94-2.85,3.94-2.85.47-.26.36-.36,0-.42h-3.27l-.16.26h-1.82.05v-.05h0Z"/>
          </g>
          <g>
            <path id="path40911" class="cls-16" d="M186.82,60.16l3.11,3.01h-1.97l-3.68-3.84h1.92c.99,0,1.56.21,2.02.73h-1.4v.1Z"/>
            <path id="path40931" class="cls-16" d="M181.84,60.05l-.16-.21h-3.27c-.36,0-.47.16,0,.42l3.94,2.96h-2.23c0-.05-3.89-2.96-3.89-2.96-.36-.57-.16-.88.73-.99h4.98c1.09.21,1.25.52,1.66.78h-1.82.05,0Z"/>
          </g>
        </g>
        <path class="cls-18" d="M107.6,356.66l98.99-3.01c1.61,0,2.75-1.45,2.54-3.06v-.31h-.42c-.16-.21-.21-.36-.31-.57l-1.19-1.09h-1.76c-29.26,2.85-50.12,1.61-71.7.78,0,.67,0,1.3-.16,1.97h-3.63c-.36-.57-.99-1.61-.93-2.28-10.95-.36-18.31.1-30.71.67v.47l7.06,5.66c.62.52,1.45.78,2.23.78h0Z"/>
        <polygon class="cls-16" points="104.79 350.48 110.29 354.68 116.16 354.68 110.4 350.48 104.79 350.48"/>
        <polygon class="cls-16" points="111.49 350.48 117.3 354.68 123.42 354.68 117.19 350.48 111.49 350.48"/>
        <polygon class="cls-16" points="128.3 350.85 130.53 354.68 155.28 354.11 155.28 351.47 135.3 350.85 128.3 350.85"/>
        <rect class="cls-16" x="156.57" y="351.47" width="4.88" height="2.65"/>
        <line class="cls-6" x1="214.37" y1="321.07" x2="215.66" y2="325.94"/>
        <line class="cls-1" x1="215.51" y1="327.97" x2="194.6" y2="345.35"/>
        <line class="cls-1" x1="214" y1="327.97" x2="193.77" y2="345.24"/>
        <line class="cls-1" x1="212.97" y1="327.24" x2="193.15" y2="344.83"/>
        <g class="cls-20">
          <path class="cls-17" d="M211.72,366.65c7.47-.57,14.89-1.25,22.26-1.92h-.1v.05l.1-11.05-21.79-5.08c.16.73,0,1.3-.16,1.76h-.31v-1.82l-6.95-3.11v3.27h-.57v-2.65l-21.79-5.08c.16.73,0,1.3-.16,1.76h-3.42c-.47-.67-.36-1.35-.36-2.02-30.77,3.22-52.3,1.92-74.6,1.04,0,.67,0,1.3-.16,1.97h-4.25c-.36-.57-.36-1.61-.31-2.28-21.95-.78-29.73,2.08-92.24,1.66-3.68,0-4.93,6.02-4.67,13.07,0,.52.1,1.3,1.25,1.4,9.65,1.04,19.2,1.87,28.64,2.54v3.63c0,.52.1,1.3,1.25,1.4,26.1,2.75,51.15,4.25,75.49,4.72l7.37.21c11.62.16,23.04,0,34.35-.21l7.52-.26c15.3-.47,30.35-1.3,45.19-2.39l8.46-.62h0Z"/>
        </g>
        <g id="path3794">
          <path d="M132.71,347.89h-1.87v-2.49h2.02l-.16,2.49ZM131.36,347.37h.83l.1-1.45h-.93v1.45h0Z"/>
        </g>
        <path id="path2996" class="cls-6" d="M133.74,348.2c.36,1.04.31,2.02,0,3.01-1.14.16-1.92.52-3.99,0-.73-.88-.57-1.71-.26-2.85,1.4-.78,3.58-.42,4.25-.21h0v.05h0Z"/>
        <path d="M222.51,352.35c-.36,0-.67-.21-.83-.52-.62-1.35-1.61-3.01-3.06-3.16-1.45-.21-3.06,1.19-3.53,1.76-.31.36-.88.42-1.3.16s-.47-.73-.21-1.09c.1-.1,2.44-2.7,5.24-2.33,1.87.26,3.37,1.66,4.51,4.2.16.42,0,.83-.52.99h-.36.05,0Z"/>
        <path d="M232.84,354.58c-.36,0-.67-.21-.83-.52-.62-1.35-1.61-3.01-3.06-3.16-1.45-.21-3.06,1.19-3.53,1.76-.31.36-.88.42-1.3.16s-.47-.73-.21-1.09c.1-.1,2.44-2.7,5.24-2.33,1.87.26,3.37,1.66,4.51,4.2.16.42,0,.83-.52.99h-.36.05,0Z"/>
        <polygon class="cls-14" points="113.1 343.74 136.81 348.77 208.92 347.89 178 342.44 113.1 343.74"/>
        <g>
          <path d="M217.01,326.88c-.1-.73-.78-1.19-1.45-1.09l-77.72,11.1-.67,2.59,78.76-11.1c.73-.1,1.19-.78,1.09-1.45h0v-.05h0Z"/>
          <path d="M173.02.39c-.36,2.65-38.18,265.42-43.06,344.39l5.71.36C140.54,266.44,178.31,3.87,178.73,1.22l-5.66-.83h-.05Z"/>
        </g>
        <g>
          <g id="path3012">
            <path d="M166.48,346.18v-1.04l49.29-2.44c.31,0,.52.21.52.52h0c0,.31-.21.52-.52.52l-49.29,2.44Z"/>
          </g>
          <g id="path3014">
            <rect x="19.5" y="324.24" width=".52" height="35.18" transform="translate(-276.79 170.67) rotate(-56.7)"/>
          </g>
          <g id="path3016">
            <path d="M112.42,349.29h0c-21.89-5.08-43.84-8.4-67.19-10.17v-.52c23.35,1.76,45.34,5.08,67.24,10.17l10.38-.73c-7.21-1.4-14.63-3.01-21.89-4.57-19.09-4.1-38.81-8.35-55.05-9.03v-.52c16.29.67,36.06,4.93,55.15,9.03,7.89,1.71,16.03,3.48,23.81,4.93v.52l-12.45.88h0Z"/>
          </g>
          <g id="path3018">
            <path class="cls-19" d="M56.7,336.42c0,1.56-3.58,2.8-7.99,2.8s-7.99-1.25-7.99-2.8h0c0-1.56,3.58-2.8,7.99-2.8s7.99,1.25,7.99,2.8h0Z"/>
            <path d="M48.71,339.64c-4.05,0-8.35-1.14-8.35-3.22s.93-1.76,2.59-2.39c1.56-.57,3.58-.83,5.76-.83h0c4.05,0,8.35,1.14,8.35,3.22h-.42.42c0,.42-.21.83-.57,1.19-1.19,1.19-4.25,1.97-7.78,1.97h0v.05ZM48.71,333.98h0c-2.08,0-4.05.31-5.5.78-1.3.47-2.08,1.09-2.08,1.61,0,1.14,3.11,2.44,7.57,2.44h0c3.22,0,6.23-.73,7.26-1.76s.36-.47.36-.67h0c0-1.14-3.11-2.44-7.57-2.44h0l-.05.05h0Z"/>
          </g>
          <g id="path3788">
            <path d="M125.13,348.67c-44.98-12.4-74.86-16.6-122.91-17.38v-1.04c48.15.78,78.08,5.03,123.17,17.43l-.26.99Z"/>
          </g>
          <g id="path3798">
            <polygon points="132.03 345.4 131.51 345.29 153.72 215.28 154.24 215.33 132.03 345.4"/>
          </g>
          <g id="path3800">
            <rect x="-27.67" y="214.44" width="283.43" height=".52" transform="translate(-126.41 250.54) rotate(-70.5)"/>
          </g>
          <g id="path4012">
            <rect x="164.62" y="105.51" width=".52" height="244.36" transform="translate(-5.12 3.8) rotate(-1.3)"/>
          </g>
        </g>
        <path id="path2998" class="cls-13" d="M208.92,347.89c1.4-.47,2.49-.31,3.53,0,.16.78.21,1.56,0,2.18-1.19.26-2.39.36-3.48,0-.42-.52-.16-1.35,0-2.13h-.05v-.05h0Z"/>
      </g>
    </g>
  </g>
</svg>